<svg version="1.1" xmlns="http://www.w3.org/2000/svg" viewBox="150 110 340 185" width="100%">
  <defs>
    <mask id="letter-mask">
      <rect x="0" y="0" width="640" height="400" fill="white"/>
      <!-- White overlay paths become black in mask = punch out letter interiors -->
      <path fill="black" d="
        M381.428955,224.844650
        C379.470703,225.318939 377.918457,225.744293 376.337921,225.979919
        C368.377014,227.166779 361.263367,221.914734 360.635498,212.236801
        C358.001862,214.726654 355.785248,216.790665 353.603577,218.891006
        C347.905273,224.376907 341.071167,225.568344 335.025146,221.999557
        C330.554718,219.360809 329.008118,215.042252 328.696686,208.931107
        C325.584015,212.381897 323.247986,215.185638 320.682739,217.761063
        C317.525726,220.930649 313.856018,223.081253 309.124451,223.026733
        C302.441406,222.949722 298.842499,217.860153 300.318695,211.136108
        C302.357971,201.847046 307.607819,194.425232 313.317657,187.203354
        C315.039398,185.025650 316.744171,182.796783 318.748383,180.899475
        C319.508667,180.179779 321.090607,180.328033 322.298035,180.080673
        C322.246094,181.201859 322.531647,182.482559 322.088989,183.419052
        C318.457489,191.101639 314.647156,198.699539 310.992401,206.371399
        C309.965027,208.528076 309.018768,210.790512 308.524323,213.108749
        C308.229980,214.488953 308.516663,216.328262 309.287720,217.447586
        C309.631134,217.946121 312.320648,217.675278 313.074982,216.903259
        C317.206085,212.675140 321.015106,208.135040 325.033264,203.793243
        C330.773621,197.590546 330.000244,189.083694 332.867920,181.843216
        C337.889801,169.163681 344.251617,157.350372 352.790131,146.727325
        C355.885071,142.876846 354.612000,138.706955 353.280243,134.926270
        C351.799744,130.723526 348.584137,127.702950 343.866760,127.017342
        C333.945953,125.575493 326.628967,130.373291 321.104492,137.743134
        C305.159576,159.014236 294.625885,183.169846 284.731232,207.633133
        C282.035919,214.296982 279.127869,220.874832 276.162506,227.857010
        C272.922516,228.628372 271.103210,227.918335 270.845856,223.268631
        C270.397125,215.160767 268.246277,207.109589 268.200562,199.026779
        C268.147949,189.730865 269.449860,180.409256 270.466614,171.132019
        C271.086914,165.472473 272.278503,159.875549 273.213470,154.250488
        C272.747681,154.095001 272.281891,153.939514 271.816101,153.784027
        C270.205078,156.587677 268.516113,159.349792 266.996277,162.202042
        C259.658325,175.973297 252.550674,189.871063 244.996658,203.522186
        C239.310654,213.797577 232.515839,223.271362 221.641617,228.833054
        C208.276230,235.668884 191.671982,236.672714 178.988312,227.226257
        C167.743515,218.851456 168.221176,203.067566 178.166000,193.420654
        C189.699524,182.232651 216.642639,183.221268 227.133255,194.853668
        C225.380585,197.792740 224.008469,199.027649 220.420013,196.150848
        C211.796631,189.237625 192.906754,188.797211 185.163315,196.993515
        C178.480545,204.067154 177.181778,216.033066 188.559814,223.791687
        C198.759933,230.747131 212.325516,229.328751 222.598679,221.825394
        C234.786087,212.923935 241.070801,199.660660 248.080658,186.872116
        C257.814667,169.113800 267.962067,151.580780 278.100891,134.048691
        C278.785034,132.865723 280.882507,132.500092 282.322693,131.754333
        C282.870636,133.235580 284.056854,134.805618 283.865112,136.183960
        C282.393646,146.761139 279.920868,157.250656 279.191620,167.865829
        C278.357239,180.010773 278.998352,192.257080 278.998352,205.742569
        C281.553314,200.237228 283.809509,195.470612 285.986603,190.668121
        C295.497437,169.688110 304.625671,148.450806 320.079559,130.915009
        C326.894775,123.181671 336.044556,120.418144 346.078369,122.182167
        C353.384308,123.466606 359.099030,130.006989 359.270264,138.439087
        C360.995422,137.394012 362.433990,136.587372 363.802277,135.675308
        C365.146393,134.779373 366.309692,133.209946 367.744812,132.932831
        C371.216339,132.262436 375.441223,130.926956 378.107117,132.298889
        C379.809448,133.174942 380.378326,138.720444 379.545258,141.624451
        C376.134979,153.512436 369.713440,163.988312 361.902832,173.458588
        C354.281342,182.699493 346.027740,191.417450 338.110870,200.417084
        C334.647919,204.353607 335.256439,215.134628 339.664307,217.759033
        C341.476288,218.837875 345.559601,218.229065 347.347778,216.804214
        C351.898773,213.177795 356.069458,208.929840 359.767426,204.418427
        C363.317627,200.087280 365.563599,194.634872 369.327393,190.544495
        C373.797241,185.686874 379.275940,181.757599 384.459869,177.303680
        C386.252655,178.866486 387.469788,179.927460 388.675415,180.978409
        C389.025269,180.897415 389.532715,180.913803 389.606079,180.743378
        C391.395355,176.585526 395.024658,175.063004 398.827545,176.193008
        C402.805969,177.375168 405.108185,181.176468 404.877991,185.305923
        C404.515350,191.811050 403.360962,198.272064 402.521454,204.912125
        C406.118195,204.968002 408.454376,201.327026 410.864685,198.259811
        C415.235748,192.697403 419.220306,186.832260 423.403778,181.121017
        C425.510254,178.245300 427.640717,178.254196 429.253265,180.702209
        C425.357239,188.843460 421.598450,196.702301 417.829742,204.556412
        C417.688385,204.850967 417.322968,205.079422 417.277344,205.372253
        C416.675964,209.231857 413.878662,213.956055 418.410248,216.507339
        C422.597778,218.864960 426.096863,214.953415 429.027313,212.364487
        C439.022797,203.533936 446.764343,192.876221 453.309937,181.297302
        C455.124268,178.087860 457.287109,175.075470 459.274384,171.997009
        C463.224121,172.785248 463.735382,174.505585 462.080933,177.830551
        C456.496643,189.053467 451.146820,200.393341 445.743378,211.705719
        C444.505615,214.296951 443.412048,216.957062 442.252136,219.585480
        C442.530029,219.980865 442.807922,220.376251 443.085815,220.771637
        C446.784058,217.955399 450.740570,215.413971 454.110046,212.247833
        C457.686920,208.886749 460.808075,205.016098 463.935577,201.209671
        C466.170929,198.489029 466.049866,198.369095 470.470581,200.666428
        C468.159821,203.783264 466.106995,206.978836 463.633911,209.806915
        C456.577362,217.876511 448.050568,224.157043 438.894257,229.652008
        C437.616394,230.418869 436.378693,231.601578 435.656891,232.891006
        C429.702148,243.528519 424.330444,254.524048 417.850800,264.825348
        C413.317230,272.032684 407.857941,278.839142 398.182495,280.090210
        C390.773895,281.048187 385.266266,276.519592 387.229858,269.444824
        C388.773407,263.883545 391.501740,258.254944 395.068909,253.733139
        C402.736938,244.013031 413.116547,237.318848 423.675323,231.031143
        C428.055756,228.422592 430.627075,224.548569 432.880096,216.712860
        C427.557037,219.746658 422.679657,223.451889 416.522095,221.790222
        C409.674438,219.942307 409.141815,213.651947 407.712524,208.020630
        C406.300629,208.382233 405.109802,208.818954 403.883118,208.976578
        C400.242371,209.444336 397.775970,211.288956 395.179779,214.020065
        C391.287048,218.115051 386.327667,221.196030 381.428955,224.844650
        M382.542236,186.972641
        C377.193939,193.614014 371.935211,200.246399 369.607086,208.755508
        C368.398407,213.173187 368.818054,216.804413 372.341827,219.814621
        C375.695251,222.679321 379.118408,220.660461 381.666077,218.904144
        C386.235077,215.754364 390.217194,211.753250 394.415131,208.133331
        C387.106934,200.880981 386.341003,192.821442 388.052094,183.369965
        C385.962830,184.644394 384.508301,185.531647 382.542236,186.972641
        M363.443848,145.036118
        C352.707397,158.021545 344.960144,172.556686 340.371277,188.809235
        C341.772736,188.470795 342.702240,187.841278 343.412415,187.021652
        C344.247955,186.057358 344.854248,184.898804 345.627045,183.875137
        C354.000519,172.783066 362.688690,161.910187 370.605133,150.501541
        C373.339081,146.561600 374.161987,141.295547 375.857849,136.635254
        C375.158356,136.199570 374.458862,135.763870 373.759338,135.328171
        C370.497040,138.400192 367.234741,141.472229 363.443848,145.036118
        M408.517761,249.988922
        C405.704468,252.803818 402.469330,255.316986 400.185150,258.510315
        C397.357727,262.463196 395.257568,266.947540 392.961700,271.265289
        C391.481323,274.049377 392.891144,275.290833 395.590118,274.925446
        C397.575867,274.656616 399.914978,274.213928 401.331940,272.974487
        C411.401978,264.166046 416.402130,252.120651 422.136353,240.561874
        C421.833374,240.263138 421.530396,239.964401 421.227417,239.665665
        C417.156891,242.935593 413.086334,246.205521 408.517761,249.988922
        M398.986633,182.847122
        C397.487152,180.638626 396.441833,179.889572 394.478424,182.840332
        C389.890503,189.735443 392.514099,195.793930 396.007050,203.053421
        C399.674927,196.337204 401.215179,190.328262 398.986633,182.847122
      "/>
      <!-- i dot interior -->
      <path fill="black" d="
        M326.751404,165.634216
        C328.899170,162.897980 331.164703,161.691269 333.687683,164.272507
        C336.759033,167.414780 334.507568,170.669159 332.463440,172.653030
        C330.886169,174.183807 326.444305,175.331818 325.427948,174.371826
        C322.777710,171.868576 324.419861,168.596649 326.751404,165.634216
        z
      "/>
    </mask>

    <clipPath id="draw-reveal">
      <rect x="150" y="0" height="400" width="0">
        <animate attributeName="width" from="0" to="340" dur="2.8s" calcMode="spline"
          keySplines="0.4 0 0.6 1" fill="freeze" begin="0.2s"/>
      </rect>
    </clipPath>
  </defs>

  <g clip-path="url(#draw-reveal)">
    <!-- Main signature ink, white areas punched out via mask -->
    <g mask="url(#letter-mask)">
      <path fill="#000000" d="
        M381.821899,224.708237
        C386.327667,221.196030 391.287048,218.115051 395.179779,214.020065
        C397.775970,211.288956 400.242371,209.444336 403.883118,208.976578
        C405.109802,208.818954 406.300629,208.382233 407.712524,208.020630
        C409.141815,213.651947 409.674438,219.942307 416.522095,221.790222
        C422.679657,223.451889 427.557037,219.746658 432.880096,216.712860
        C430.627075,224.548569 428.055756,228.422592 423.675323,231.031143
        C413.116547,237.318848 402.736938,244.013031 395.068909,253.733139
        C391.501740,258.254944 388.773407,263.883545 387.229858,269.444824
        C385.266266,276.519592 390.773895,281.048187 398.182495,280.090210
        C407.857941,278.839142 413.317230,272.032684 417.850800,264.825348
        C424.330444,254.524048 429.702148,243.528519 435.656891,232.891006
        C436.378693,231.601578 437.616394,230.418869 438.894257,229.652008
        C448.050568,224.157043 456.577362,217.876511 463.633911,209.806915
        C466.106995,206.978836 468.159821,203.783264 470.470581,200.666428
        C466.049866,198.369095 466.170929,198.489029 463.935577,201.209671
        C460.808075,205.016098 457.686920,208.886749 454.110046,212.247833
        C450.740570,215.413971 446.784058,217.955399 443.085815,220.771637
        C442.807922,220.376251 442.530029,219.980865 442.252136,219.585480
        C443.412048,216.957062 444.505615,214.296951 445.743378,211.705719
        C451.146820,200.393341 456.496643,189.053467 462.080933,177.830551
        C463.735382,174.505585 463.224121,172.785248 459.274384,171.997009
        C457.287109,175.075470 455.124268,178.087860 453.309937,181.297302
        C446.764343,192.876221 439.022797,203.533936 429.027313,212.364487
        C426.096863,214.953415 422.597778,218.864960 418.410248,216.507339
        C413.878662,213.956055 416.675964,209.231857 417.277344,205.372253
        C417.322968,205.079422 417.688385,204.850967 417.829742,204.556412
        C421.598450,196.702301 425.357239,188.843460 429.253265,180.702209
        C427.640717,178.254196 425.510254,178.245300 423.403778,181.121017
        C419.220306,186.832260 415.235748,192.697403 410.864685,198.259811
        C408.454376,201.327026 406.118195,204.968002 402.521454,204.912125
        C403.360962,198.272064 404.515350,191.811050 404.877991,185.305923
        C405.108185,181.176468 402.805969,177.375168 398.827545,176.193008
        C395.024658,175.063004 391.395355,176.585526 389.606079,180.743378
        C389.532715,180.913803 389.025269,180.897415 388.675415,180.978409
        C387.469788,179.927460 386.252655,178.866486 384.459869,177.303680
        C379.275940,181.757599 373.797241,185.686874 369.327393,190.544495
        C365.563599,194.634872 363.317627,200.087280 359.767426,204.418427
        C356.069458,208.929840 351.898773,213.177795 347.347778,216.804214
        C345.559601,218.229065 341.476288,218.837875 339.664307,217.759033
        C335.256439,215.134628 334.647919,204.353607 338.110870,200.417084
        C346.027740,191.417450 354.281342,182.699493 361.902832,173.458588
        C369.713440,163.988312 376.134979,153.512436 379.545258,141.624451
        C380.378326,138.720444 379.809448,133.174942 378.107117,132.298889
        C375.441223,130.926956 371.216339,132.262436 367.744812,132.932831
        C366.309692,133.209946 365.146393,134.779373 363.802277,135.675308
        C362.433990,136.587372 360.995422,137.394012 359.270264,138.439087
        C359.099030,130.006989 353.384308,123.466606 346.078369,122.182167
        C336.044556,120.418144 326.894775,123.181671 320.079559,130.915009
        C304.625671,148.450806 295.497437,169.688110 285.986603,190.668121
        C283.809509,195.470612 281.553314,200.237228 278.998352,205.742569
        C278.998352,192.257080 278.357239,180.010773 279.191620,167.865829
        C279.920868,157.250656 282.393646,146.761139 283.865112,136.183960
        C284.056854,134.805618 282.870636,133.235580 282.322693,131.754318
        C280.882507,132.500092 278.785034,132.865723 278.100891,134.048691
        C267.962067,151.580780 257.814667,169.113800 248.080658,186.872116
        C241.070801,199.660660 234.786087,212.923935 222.598679,221.825394
        C212.325516,229.328751 198.759933,230.747131 188.559814,223.791687
        C177.181778,216.033066 178.480545,204.067154 185.163315,196.993515
        C192.906754,188.797211 211.796631,189.237625 220.420013,196.150848
        C224.008469,199.027649 225.380585,197.792740 227.133255,194.853668
        C216.642639,183.221268 189.699524,182.232651 178.166000,193.420654
        C168.221176,203.067566 167.743515,218.851456 178.988312,227.226257
        C191.671982,236.672714 208.276230,235.668884 221.641617,228.833054
        C232.515839,223.271362 239.310654,213.797577 244.996658,203.522186
        C252.550674,189.871063 259.658325,175.973297 266.996277,162.202042
        C268.516113,159.349792 270.205078,156.587677 271.816101,153.784027
        C272.281891,153.939514 272.747681,154.095001 273.213470,154.250488
        C272.278503,159.875549 271.086914,165.472473 270.466614,171.132019
        C269.449860,180.409256 268.147949,189.730865 268.200562,199.026779
        C268.246277,207.109589 270.397125,215.160767 270.845856,223.268631
        C271.103210,227.918335 272.922516,228.628372 276.162506,227.857010
        C279.127869,220.874832 282.035919,214.296982 284.731232,207.633133
        C294.625885,183.169846 305.159576,159.014236 321.104492,137.743134
        C326.628967,130.373291 333.945953,125.575493 343.866760,127.017342
        C348.584137,127.702950 351.799744,130.723526 353.280243,134.926270
        C354.612000,138.706955 355.885071,142.876846 352.790131,146.727325
        C344.251617,157.350372 337.889801,169.163681 332.867920,181.843216
        C330.000244,189.083694 330.773621,197.590546 325.033264,203.793243
        C321.015106,208.135040 317.206085,212.675140 313.074982,216.903259
        C312.320648,217.675278 309.631134,217.946121 309.287720,217.447586
        C308.516663,216.328262 308.229980,214.488953 308.524323,213.108749
        C309.018768,210.790512 309.965027,208.528076 310.992401,206.371399
        C314.647156,198.699539 318.457489,191.101639 322.088989,183.419052
        C322.531647,182.482559 322.246094,181.201859 322.298035,180.080673
        C321.090607,180.328033 319.508667,180.179779 318.748383,180.899475
        C316.744171,182.796783 315.039398,185.025650 313.317657,187.203354
        C307.607819,194.425232 302.357971,201.847046 300.318695,211.136108
        C298.842499,217.860153 302.441406,222.949722 309.124451,223.026733
        C313.856018,223.081253 317.525726,220.930649 320.682739,217.761063
        C323.247986,215.185638 325.584015,212.381897 328.696686,208.931107
        C329.008118,215.042252 330.554718,219.360809 335.025146,221.999557
        C341.071167,225.568344 347.905273,224.376907 353.603577,218.891006
        C355.785248,216.790665 358.001862,214.726654 360.635498,212.236801
        C361.263367,221.914734 368.377014,227.166779 376.337921,225.979919
        C377.918457,225.744293 379.470703,225.318939 381.821899,224.708237
        M326.533234,165.970444
        C324.419861,168.596649 322.777710,171.868576 325.427948,174.371826
        C326.444305,175.331818 330.886169,174.183807 332.463440,172.653030
        C334.507568,170.669159 336.759033,167.414780 333.687683,164.272507
        C331.164703,161.691269 328.899170,162.897980 326.533234,165.970444
        z
      "/>
    </g>

    <!-- Detail ink marks drawn on top of punched-out areas -->
    <path fill="#000000" d="
      M382.797974,186.695770
      C384.508301,185.531647 385.962830,184.644394 388.052094,183.369965
      C386.341003,192.821442 387.106934,200.880981 394.415131,208.133331
      C390.217194,211.753250 386.235077,215.754364 381.666077,218.904144
      C379.118408,220.660461 375.695251,222.679321 372.341827,219.814621
      C368.818054,216.804413 368.398407,213.173187 369.607086,208.755508
      C371.935211,200.246399 377.193939,193.614014 382.797974,186.695770
      z
    "/>
    <path fill="#000000" d="
      M363.708130,144.790192
      C367.234741,141.472229 370.497040,138.400192 373.759338,135.328171
      C374.458862,135.763870 375.158356,136.199570 375.857849,136.635254
      C374.161987,141.295547 373.339081,146.561600 370.605133,150.501541
      C362.688690,161.910187 354.000519,172.783066 345.627045,183.875137
      C344.854248,184.898804 344.247955,186.057358 343.412415,187.021652
      C342.702240,187.841278 341.772736,188.470795 340.371277,188.809235
      C344.960144,172.556686 352.707397,158.021545 363.708130,144.790192
      z
    "/>
    <path fill="#000000" d="
      M408.766785,249.732178
      C413.086334,246.205521 417.156891,242.935593 421.227417,239.665665
      C421.530396,239.964401 421.833374,240.263138 422.136353,240.561874
      C416.402130,252.120651 411.401978,264.166046 401.331940,272.974487
      C399.914978,274.213928 397.575867,274.656616 395.590118,274.925446
      C392.891144,275.290833 391.481323,274.049377 392.961700,271.265289
      C395.257568,266.947540 397.357727,262.463196 400.185150,258.510315
      C402.469330,255.316986 405.704468,252.803818 408.766785,249.732178
      z
    "/>
    <path fill="#000000" d="
      M399.070129,183.259888
      C401.215179,190.328262 399.674927,196.337204 396.007050,203.053421
      C392.514099,195.793930 389.890503,189.735443 394.478424,182.840332
      C396.441833,179.889572 397.487152,180.638626 399.070129,183.259888
      z
    "/>
  </g>
</svg>
