<svg xmlns="http://www.w3.org/2000/svg" viewBox="0 88 1465 618" role="img" aria-labelledby="title desc" class="portfolio-hud">
  <title id="title">Interactive AI and data capability HUD</title>
  <desc id="desc">Ten capability cards connected to a central processor. Hovering a card animates its line and glow.</desc>
  <defs>
    <linearGradient id="chipFill" x1="0" y1="0" x2="1" y2="1"><stop offset="0%" stop-color="#030712"/><stop offset="100%" stop-color="#0a1520"/></linearGradient>
    <linearGradient id="activeStroke" x1="0" y1="0" x2="1" y2="0"><stop offset="0%" stop-color="#52a8b8"/><stop offset="100%" stop-color="#86cfe0"/></linearGradient>
    <filter id="glow" x="-100%" y="-100%" width="300%" height="300%"><feGaussianBlur stdDeviation="3" result="blur"/><feMerge><feMergeNode in="blur"/><feMergeNode in="SourceGraphic"/></feMerge></filter>
    <filter id="softGlow" x="-100%" y="-100%" width="300%" height="300%"><feGaussianBlur stdDeviation="7" result="blur"/><feMerge><feMergeNode in="blur"/><feMergeNode in="SourceGraphic"/></feMerge></filter>
    <style>
      .portfolio-hud{font-family:Inter,ui-sans-serif,system-ui,-apple-system,BlinkMacSystemFont,"Segoe UI",sans-serif;overflow:visible}.card-group{cursor:pointer;outline:none}.connector-base,.connector-active{fill:none;stroke-linecap:round;stroke-linejoin:round}.connector-base{stroke:#52a8b8;stroke-opacity:.22;stroke-width:2}.connector-active{stroke:url(#activeStroke);stroke-width:3;stroke-dasharray:100;stroke-dashoffset:100;opacity:0;filter:url(#glow);transition:stroke-dashoffset .62s ease,opacity .22s ease}.card{fill:none;stroke:rgba(82,168,184,.38);stroke-width:2;transition:fill .25s ease,stroke .25s ease,filter .25s ease,transform .25s ease;transform-box:fill-box;transform-origin:center}.icon{fill:none;stroke:#62b5c8;stroke-width:3;stroke-linecap:round;stroke-linejoin:round;transition:stroke .25s ease,filter .25s ease}.label{fill:rgba(255,255,255,.92);font-family:Inter,Arial,sans-serif;font-size:26px;font-weight:600;letter-spacing:0;dominant-baseline:middle;text-rendering:geometricPrecision;shape-rendering:geometricPrecision;-webkit-font-smoothing:antialiased;-moz-osx-font-smoothing:grayscale}.node{fill:#62b5c8;opacity:.48;transition:opacity .2s ease,transform .2s ease,filter .2s ease;transform-box:fill-box;transform-origin:center}.card-group:hover .connector-active,.card-group:focus-visible .connector-active{stroke-dashoffset:0;opacity:1}.card-group:hover .card,.card-group:focus-visible .card{fill:none;stroke:#6bbecf;filter:url(#glow);transform:translateY(-2px)}.card-group:hover .icon,.card-group:focus-visible .icon{stroke:#86cfe0;filter:url(#glow)}.card-group:hover .node,.card-group:focus-visible .node{opacity:.88;filter:url(#glow);transform:scale(1.22)}.processor-ring{fill:none;stroke:#52a8b8;stroke-opacity:.16;transform-box:fill-box;transform-origin:center}.ring-a{stroke-width:2;stroke-dasharray:14 12;animation:spin 22s linear infinite}.ring-b{stroke-width:1.5;stroke-dasharray:5 12;animation:spinReverse 17s linear infinite}.ring-c{stroke-width:1.2;stroke-dasharray:3 10}.processor-body{fill:none;stroke:#52a8b8;stroke-width:3;filter:url(#softGlow)}.processor-inner{fill:none;stroke:rgba(82,168,184,.62);stroke-width:2}.processor-core{fill:none;stroke:#6bbecf;stroke-width:2;filter:url(#glow)}.processor-grid{fill:none;stroke:#62b5c8;stroke-opacity:.58;stroke-width:1.5}.processor-pin{stroke:#52a8b8;stroke-opacity:.62;stroke-width:4;stroke-linecap:round}.neural-cluster{opacity:.28;pointer-events:none;transform-box:fill-box;transform-origin:center;will-change:transform}.neural-line{fill:none;stroke:#52a8b8;stroke-opacity:.42;stroke-width:1.4;stroke-linecap:round;stroke-linejoin:round}.neural-dot{fill:#6bbecf;filter:url(#glow)}.neural-core{fill:none;stroke:#62b5c8;stroke-opacity:.52;stroke-width:1.2}.pulse-soft{animation:pulseSoft 4.6s ease-in-out infinite}@keyframes spin{to{transform:rotate(360deg)}}@keyframes spinReverse{to{transform:rotate(-360deg)}}@keyframes pulseSoft{0%,100%{opacity:.18}50%{opacity:.32}}@media (prefers-reduced-motion:reduce){.ring-a,.ring-b{animation:none!important}.pulse-soft{animation:none!important;opacity:.24}.neural-cluster{opacity:.22}}
    </style>
  </defs>

  <!-- LEFT -->
  <g class="card-group" tabindex="0"><path class="connector-base" d="M475 150 H555 L610 180 V239 H672"/><path class="connector-active" pathLength="100" d="M475 150 H555 L610 180 V239 H672"/><circle class="node" cx="475" cy="150" r="5"/><circle class="node" cx="672" cy="239" r="5"/><rect class="card" x="35" y="103" width="440" height="100" rx="18"/><g class="icon" transform="translate(78 136)"><ellipse cx="18" cy="6" rx="13" ry="5"/><path d="M5 6v30c0 3 6 5 13 5s13-2 13-5V6"/><path d="M5 17c0 3 6 5 13 5s13-2 13-5"/><path d="M5 28c0 3 6 5 13 5s13-2 13-5"/></g><text class="label" x="140" y="153">Data Warehousing</text></g>
  <g class="card-group" tabindex="0"><path class="connector-base" d="M445 270 H525 L555 310 V366 H569"/><path class="connector-active" pathLength="100" d="M445 270 H525 L555 310 V366 H569"/><circle class="node" cx="445" cy="270" r="5"/><circle class="node" cx="569" cy="366" r="5"/><rect class="card" x="5" y="223" width="440" height="100" rx="18"/><g class="icon" transform="translate(48 256)"><circle cx="17" cy="17" r="12"/><path d="M26 26l12 12"/><path d="M17 11v12"/><path d="M11 17h12"/></g><text class="label" x="110" y="273">RAG &amp; Vector Search</text></g>
  <g class="card-group" tabindex="0"><path class="connector-base" d="M445 390 H510 L540 374 V390 H569"/><path class="connector-active" pathLength="100" d="M445 390 H510 L540 374 V390 H569"/><circle class="node" cx="445" cy="390" r="5"/><circle class="node" cx="569" cy="390" r="5"/><rect class="card" x="5" y="343" width="440" height="100" rx="18"/><g class="icon" transform="translate(48 376)"><rect x="2" y="3" width="13" height="8" rx="1"/><rect x="25" y="3" width="13" height="8" rx="1"/><rect x="14" y="27" width="13" height="8" rx="1"/><path d="M15 7h10"/><path d="M20 7v13"/><path d="M20 20h1"/><path d="M20 20v7"/></g><text class="label" x="110" y="393">Scalable Data Pipelines</text></g>
  <g class="card-group" tabindex="0"><path class="connector-base" d="M445 510 H525 L555 470 V414 H569"/><path class="connector-active" pathLength="100" d="M445 510 H525 L555 470 V414 H569"/><circle class="node" cx="445" cy="510" r="5"/><circle class="node" cx="569" cy="414" r="5"/><rect class="card" x="5" y="463" width="440" height="100" rx="18"/><g class="icon" transform="translate(48 496)"><path d="M10 18c0-5 4-9 9-9"/><path d="M19 9c5 0 9 4 9 9"/><path d="M28 18c0 5-4 9-9 9"/><path d="M19 27c-5 0-9-4-9-9"/><path d="M19 2v7"/><path d="M19 27v9"/><path d="M3 18h7"/><path d="M28 18h9"/><circle cx="19" cy="18" r="3"/></g><text class="label" x="110" y="513">LLM Operationalization</text></g>
  <g class="card-group" tabindex="0"><path class="connector-base" d="M475 630 H555 L610 600 V541 H672"/><path class="connector-active" pathLength="100" d="M475 630 H555 L610 600 V541 H672"/><circle class="node" cx="475" cy="630" r="5"/><circle class="node" cx="672" cy="541" r="5"/><rect class="card" x="35" y="583" width="440" height="100" rx="18"/><g class="icon" transform="translate(78 616)"><path d="M4 35V2"/><path d="M4 35h34"/><path d="M12 30V18"/><path d="M20 30V10"/><path d="M28 30V22"/></g><text class="label" x="140" y="633">Business Intelligence (BI)</text></g>

  <!-- RIGHT -->
  <g class="card-group" tabindex="0"><path class="connector-base" d="M965 150 H885 L830 180 V239 H768"/><path class="connector-active" pathLength="100" d="M965 150 H885 L830 180 V239 H768"/><circle class="node" cx="965" cy="150" r="5"/><circle class="node" cx="768" cy="239" r="5"/><rect class="card" x="965" y="103" width="440" height="100" rx="18"/><g class="icon" transform="translate(995 136)"><rect x="4" y="11" width="30" height="28" rx="5"/><path d="M12 11V8a7 7 0 0 1 14 0v3"/><circle cx="13" cy="25" r="2"/><circle cx="25" cy="25" r="2"/><path d="M13 33h12"/></g><text class="label" x="1055" y="153">Automation Systems</text></g>
  <g class="card-group" tabindex="0"><path class="connector-base" d="M995 270 H915 L885 310 V366 H871"/><path class="connector-active" pathLength="100" d="M995 270 H915 L885 310 V366 H871"/><circle class="node" cx="995" cy="270" r="5"/><circle class="node" cx="871" cy="366" r="5"/><rect class="card" x="995" y="223" width="440" height="100" rx="18"/><g class="icon" transform="translate(1025 256)"><path d="M3 34l11-14 9 8 10-18"/><circle cx="33" cy="10" r="4"/><circle cx="14" cy="20" r="3"/></g><text class="label" x="1085" y="273">Data Strategy</text></g>
  <g class="card-group" tabindex="0"><path class="connector-base" d="M995 390 H930 L900 374 V390 H871"/><path class="connector-active" pathLength="100" d="M995 390 H930 L900 374 V390 H871"/><circle class="node" cx="995" cy="390" r="5"/><circle class="node" cx="871" cy="390" r="5"/><rect class="card" x="995" y="343" width="440" height="100" rx="18"/><g class="icon" transform="translate(1025 376)"><path d="M2 34h36"/><path d="M5 28l10-11 8 6 13-18"/></g><text class="label" x="1085" y="393">Predictive Analytics</text></g>
  <g class="card-group" tabindex="0"><path class="connector-base" d="M995 510 H915 L885 470 V414 H871"/><path class="connector-active" pathLength="100" d="M995 510 H915 L885 470 V414 H871"/><circle class="node" cx="995" cy="510" r="5"/><circle class="node" cx="871" cy="414" r="5"/><rect class="card" x="995" y="463" width="440" height="100" rx="18"/><g class="icon" transform="translate(1025 496)"><path d="M19 3c7 9 12 14 12 21a12 12 0 0 1-24 0c0-7 5-12 12-21Z"/><path d="M12 26c2 4 5 6 9 6"/></g><text class="label" x="1085" y="513">Machine Learning</text></g>
  <g class="card-group" tabindex="0"><path class="connector-base" d="M965 630 H885 L830 600 V541 H768"/><path class="connector-active" pathLength="100" d="M965 630 H885 L830 600 V541 H768"/><circle class="node" cx="965" cy="630" r="5"/><circle class="node" cx="768" cy="541" r="5"/><rect class="card" x="965" y="583" width="440" height="100" rx="18"/><g class="icon" transform="translate(995 616)"><rect x="4" y="11" width="30" height="28" rx="5"/><path d="M12 11V8a7 7 0 0 1 14 0v3"/><circle cx="13" cy="25" r="2"/><circle cx="25" cy="25" r="2"/><path d="M13 33h12"/></g><text class="label" x="1055" y="633">AI Agents &amp; Orchestration</text></g>

  <!-- SUBTLE NEURAL PARTICLES -->
  <g class="neural-cluster drift-a pulse-soft">
    <path class="neural-line" d="M610 150 L624 142 L640 149"/>
    <circle class="neural-dot" cx="610" cy="150" r="2.2"/>
    <circle class="neural-dot" cx="624" cy="142" r="2.7"/>
    <circle class="neural-dot" cx="640" cy="149" r="2.2"/>
  </g>
  <g class="neural-cluster drift-b pulse-soft">
    <path class="neural-line" d="M828 144 L844 136 L858 146"/>
    <circle class="neural-dot" cx="828" cy="144" r="2.2"/>
    <circle class="neural-dot" cx="844" cy="136" r="2.7"/>
    <circle class="neural-dot" cx="858" cy="146" r="2.2"/>
  </g>
  <g class="neural-cluster drift-c pulse-soft">
    <path class="neural-line" d="M595 600 L612 592 L628 602"/>
    <circle class="neural-dot" cx="595" cy="600" r="2.2"/>
    <circle class="neural-dot" cx="612" cy="592" r="2.7"/>
    <circle class="neural-dot" cx="628" cy="602" r="2.2"/>
  </g>
  <g class="neural-cluster drift-d pulse-soft">
    <path class="neural-line" d="M813 596 L829 586 L846 595"/>
    <circle class="neural-dot" cx="813" cy="596" r="2.2"/>
    <circle class="neural-dot" cx="829" cy="586" r="2.7"/>
    <circle class="neural-dot" cx="846" cy="595" r="2.2"/>
  </g>
  <g class="neural-cluster drift-b">
    <path class="neural-line" d="M572 300 L586 288 L600 296 L592 312"/>
    <circle class="neural-dot" cx="572" cy="300" r="2"/>
    <circle class="neural-dot" cx="586" cy="288" r="2.5"/>
    <circle class="neural-dot" cx="600" cy="296" r="2"/>
    <circle class="neural-dot" cx="592" cy="312" r="2.2"/>
  </g>
  <g class="neural-cluster drift-c">
    <path class="neural-line" d="M870 292 L884 282 L897 290 L888 306"/>
    <circle class="neural-dot" cx="870" cy="292" r="2"/>
    <circle class="neural-dot" cx="884" cy="282" r="2.5"/>
    <circle class="neural-dot" cx="897" cy="290" r="2"/>
    <circle class="neural-dot" cx="888" cy="306" r="2.2"/>
  </g>
  <g class="neural-cluster drift-d">
    <path class="neural-line" d="M570 478 L586 470 L598 482"/>
    <circle class="neural-dot" cx="570" cy="478" r="2.1"/>
    <circle class="neural-dot" cx="586" cy="470" r="2.6"/>
    <circle class="neural-dot" cx="598" cy="482" r="2.1"/>
  </g>
  <g class="neural-cluster drift-a">
    <path class="neural-line" d="M877 470 L892 462 L906 474"/>
    <circle class="neural-dot" cx="877" cy="470" r="2.1"/>
    <circle class="neural-dot" cx="892" cy="462" r="2.6"/>
    <circle class="neural-dot" cx="906" cy="474" r="2.1"/>
  </g>
  <!-- PROCESSOR -->
  <g transform="translate(720 390)"><circle class="processor-ring ring-a" cx="0" cy="0" r="172"/><circle class="processor-ring ring-b" cx="0" cy="0" r="145"/><circle class="processor-ring ring-c" cx="0" cy="0" r="120"/><g><line class="processor-pin" x1="-118" y1="-48" x2="-151" y2="-48"/><line class="processor-pin" x1="-118" y1="-24" x2="-151" y2="-24"/><line class="processor-pin" x1="-118" y1="0" x2="-151" y2="0"/><line class="processor-pin" x1="-118" y1="24" x2="-151" y2="24"/><line class="processor-pin" x1="-118" y1="48" x2="-151" y2="48"/><line class="processor-pin" x1="118" y1="-48" x2="151" y2="-48"/><line class="processor-pin" x1="118" y1="-24" x2="151" y2="-24"/><line class="processor-pin" x1="118" y1="0" x2="151" y2="0"/><line class="processor-pin" x1="118" y1="24" x2="151" y2="24"/><line class="processor-pin" x1="118" y1="48" x2="151" y2="48"/><line class="processor-pin" x1="-48" y1="-118" x2="-48" y2="-151"/><line class="processor-pin" x1="-24" y1="-118" x2="-24" y2="-151"/><line class="processor-pin" x1="0" y1="-118" x2="0" y2="-151"/><line class="processor-pin" x1="24" y1="-118" x2="24" y2="-151"/><line class="processor-pin" x1="48" y1="-118" x2="48" y2="-151"/><line class="processor-pin" x1="-48" y1="118" x2="-48" y2="151"/><line class="processor-pin" x1="-24" y1="118" x2="-24" y2="151"/><line class="processor-pin" x1="0" y1="118" x2="0" y2="151"/><line class="processor-pin" x1="24" y1="118" x2="24" y2="151"/><line class="processor-pin" x1="48" y1="118" x2="48" y2="151"/></g><rect class="processor-body" x="-110" y="-110" width="220" height="220" rx="26"/><rect class="processor-inner" x="-84" y="-84" width="168" height="168" rx="20"/><rect class="processor-core" x="-59" y="-59" width="118" height="118" rx="15"/><g class="processor-grid">
      <path d="M0 -30 C-8 -36 -19 -37 -28 -31 C-36 -26 -39 -17 -36 -8 C-42 -2 -42 10 -35 17 C-33 28 -23 35 -12 33 C-5 37 5 37 12 33 C23 35 33 28 35 17 C42 10 42 -2 36 -8 C39 -17 36 -26 28 -31 C19 -37 8 -36 0 -30 Z"/>
      <path d="M0 -29 V31"/>
      <path d="M-18 -18 C-12 -14 -11 -8 -14 -3"/>
      <path d="M-23 3 C-15 5 -12 11 -13 18"/>
      <path d="M18 -18 C12 -14 11 -8 14 -3"/>
      <path d="M23 3 C15 5 12 11 13 18"/>
      <path d="M-8 -10 C-4 -7 -3 -2 -5 3"/>
      <path d="M8 -10 C4 -7 3 -2 5 3"/>
      <circle cx="-24" cy="-18" r="2.6" fill="#62b5c8" stroke="none"/>
      <circle cx="-24" cy="4" r="2.6" fill="#62b5c8" stroke="none"/>
      <circle cx="24" cy="-18" r="2.6" fill="#62b5c8" stroke="none"/>
      <circle cx="24" cy="4" r="2.6" fill="#62b5c8" stroke="none"/>
      <circle cx="0" cy="30" r="2.6" fill="#62b5c8" stroke="none"/>
    </g></g>

  <script><![CDATA[
    (() => {
      const svg = document.currentScript.ownerSVGElement;
      const clusters = [...svg.querySelectorAll('.neural-cluster')];
      const cursor = { x: -9999, y: -9999, active: false };
      const bounds = { minX: 520, maxX: 920, minY: 120, maxY: 650 };

      const states = clusters.map((el, index) => {
        const box = el.getBBox();
        const baseX = box.x + box.width / 2;
        const baseY = box.y + box.height / 2;
        const angle = (index * 2.3999632297) % (Math.PI * 2);
        const speed = 0.0013 + (index % 4) * 0.00035;

        return {
          el,
          baseX,
          baseY,
          x: Math.max(bounds.minX, Math.min(bounds.maxX, baseX)),
          y: Math.max(bounds.minY, Math.min(bounds.maxY, baseY)),
          vx: Math.cos(angle) * speed,
          vy: Math.sin(angle) * speed,
          phase: index * 0.87,
          repelX: 0,
          repelY: 0,
          targetRepelX: 0,
          targetRepelY: 0
        };
      });

      const toSvgPoint = (event) => {
        const point = svg.createSVGPoint();
        point.x = event.clientX;
        point.y = event.clientY;
        return point.matrixTransform(svg.getScreenCTM().inverse());
      };

      svg.addEventListener('pointermove', (event) => {
        const point = toSvgPoint(event);
        cursor.x = point.x;
        cursor.y = point.y;
        cursor.active = true;
      });

      svg.addEventListener('pointerleave', () => {
        cursor.active = false;
      });

      let previousTime = performance.now();

      const animate = (time) => {
        const delta = Math.min(34, time - previousTime);
        previousTime = time;

        states.forEach((state, index) => {
          const waveX = Math.sin(time * 0.00018 + state.phase) * 0.00035;
          const waveY = Math.cos(time * 0.00016 + state.phase * 1.12) * 0.00035;

          state.vx += waveX;
          state.vy += waveY;

          const maxSpeed = 0.0065;
          const currentSpeed = Math.hypot(state.vx, state.vy) || 1;
          if (currentSpeed > maxSpeed) {
            state.vx = (state.vx / currentSpeed) * maxSpeed;
            state.vy = (state.vy / currentSpeed) * maxSpeed;
          }

          state.x += state.vx * delta;
          state.y += state.vy * delta;

          if (state.x < bounds.minX || state.x > bounds.maxX) {
            state.vx *= -1;
            state.x = Math.max(bounds.minX, Math.min(bounds.maxX, state.x));
          }

          if (state.y < bounds.minY || state.y > bounds.maxY) {
            state.vy *= -1;
            state.y = Math.max(bounds.minY, Math.min(bounds.maxY, state.y));
          }

          state.targetRepelX = 0;
          state.targetRepelY = 0;

          if (cursor.active) {
            const dx = state.x - cursor.x;
            const dy = state.y - cursor.y;
            const distance = Math.hypot(dx, dy) || 1;
            const influenceRadius = 175;

            if (distance < influenceRadius) {
              const force = Math.pow((influenceRadius - distance) / influenceRadius, 1.35) * 58;
              state.targetRepelX = (dx / distance) * force;
              state.targetRepelY = (dy / distance) * force;
            }
          }

          state.repelX += (state.targetRepelX - state.repelX) * 0.08;
          state.repelY += (state.targetRepelY - state.repelY) * 0.08;

          const translateX = state.x - state.baseX + state.repelX;
          const translateY = state.y - state.baseY + state.repelY;
          state.el.style.transform = `translate(${translateX.toFixed(2)}px, ${translateY.toFixed(2)}px)`;
        });

        requestAnimationFrame(animate);
      };

      requestAnimationFrame(animate);
    })();
  ]]></script>
</svg>
